<svg xmlns="http://www.w3.org/2000/svg" version="1.0" viewBox="0 0 265.604 237.683"><path d="M177.49 48.7c-24.7 26.9-45 48.8-45.1 48.8 0 0-20.1-21.7-44.5-48.3-24.5-26.5-45-48.1-45.5-48-.6.2-10.4 10.4-21.8 22.8L-.01 46.4l4.2 4.6c2.3 2.5 32.1 34.8 66.1 71.8l61.9 67.3 3.3-3.3c1.8-1.8 31.9-34.3 66.7-72.3l63.4-68.9-21-22.8C233.09 10.3 223.29 0 222.99 0c-.4 0-20.9 21.9-45.5 48.7z"/><text y="205.147" font-size="5" font-weight="bold" font-family="'Helvetica Neue', Helvetica, Arial-Unicode, Arial, Sans-serif">Created by iconeu</text><text y="210.147" font-size="5" font-weight="bold" font-family="'Helvetica Neue', Helvetica, Arial-Unicode, Arial, Sans-serif">from the Noun Project</text></svg>