<svg width="100" height="100" fill="none" xmlns="http://www.w3.org/2000/svg"><path stroke="#fff" stroke-width="4" d="M2 2h96v96H2z"/><path d="M38.116 31.292c-.224.187-.644.439-1.26.756-.597.317-1.335.597-2.212.84-.877.243-1.848.355-2.912.336-1.624-.037-3.08-.327-4.368-.868-1.27-.56-2.352-1.316-3.248-2.268a10.028 10.028 0 0 1-2.016-3.276 11.051 11.051 0 0 1-.7-3.948c0-1.568.233-3.005.7-4.312.485-1.307 1.167-2.436 2.044-3.388a9.339 9.339 0 0 1 3.192-2.212c1.232-.523 2.595-.784 4.088-.784 1.381 0 2.604.187 3.668.56 1.064.373 1.932.775 2.604 1.204L36.1 17.768c-.467-.355-1.092-.719-1.876-1.092-.765-.392-1.652-.588-2.66-.588-.784 0-1.54.168-2.268.504a5.896 5.896 0 0 0-1.904 1.372 6.835 6.835 0 0 0-1.288 2.1c-.317.784-.476 1.643-.476 2.576 0 .99.14 1.895.42 2.716.299.821.719 1.53 1.26 2.128a5.625 5.625 0 0 0 1.932 1.344c.765.317 1.624.476 2.576.476 1.101 0 2.044-.177 2.828-.532.784-.355 1.381-.728 1.792-1.12l1.68 3.64Zm2.807-8.568c0-1.419.271-2.763.812-4.032a10.81 10.81 0 0 1 5.6-5.684c1.27-.56 2.632-.84 4.088-.84 1.438 0 2.791.28 4.06.84 1.27.56 2.39 1.335 3.36 2.324.99.97 1.755 2.09 2.296 3.36.56 1.27.84 2.613.84 4.032 0 1.456-.28 2.819-.84 4.088a10.354 10.354 0 0 1-2.296 3.36c-.97.952-2.09 1.699-3.36 2.24a10.24 10.24 0 0 1-4.06.812c-1.456 0-2.818-.27-4.088-.812a10.809 10.809 0 0 1-3.36-2.24 10.81 10.81 0 0 1-2.24-3.36c-.54-1.27-.812-2.632-.812-4.088Zm4.2 0c0 .915.16 1.773.476 2.576a7.166 7.166 0 0 0 1.372 2.1 6.648 6.648 0 0 0 2.044 1.4 6.4 6.4 0 0 0 2.548.504c.878 0 1.69-.168 2.436-.504a6 6 0 0 0 1.988-1.4 6.998 6.998 0 0 0 1.316-2.1 6.941 6.941 0 0 0 .476-2.576c0-.933-.168-1.801-.504-2.604a6.324 6.324 0 0 0-1.344-2.1 5.816 5.816 0 0 0-1.988-1.428 6.13 6.13 0 0 0-2.492-.504 6.13 6.13 0 0 0-2.492.504 6.112 6.112 0 0 0-2.016 1.428 6.327 6.327 0 0 0-1.344 2.1 7.02 7.02 0 0 0-.476 2.604ZM41.112 61.84 25.488 47.728l1.204.672.084 12.6H22.66V39.58h.168l15.288 14.056-.896-.392-.084-12.852h4.088V61.84h-.112Zm3.095-.84 9.296-21.42h.224L63.023 61H58.32l-5.936-15.064 2.94-2.016L48.211 61h-4.004Zm6.356-7.448h6.188l1.428 3.416h-8.876l1.26-3.416ZM26.776 75.728l-.112 1.036.616-.784L34 68.392h5.264l-8.512 9.24L39.292 89H34.14l-6.356-8.792-1.008 1.008V89H22.66V68.392h4.116v7.336Zm21.843-7.336c1.288 0 2.436.168 3.444.504 1.008.317 1.848.784 2.52 1.4a5.743 5.743 0 0 1 1.568 2.184c.354.84.532 1.792.532 2.856 0 .84-.13 1.68-.392 2.52a6.24 6.24 0 0 1-1.232 2.296c-.56.69-1.307 1.25-2.24 1.68-.934.41-2.09.616-3.472.616h-2.912V89h-4.06V68.392h6.244Zm.7 10.136c.616 0 1.13-.103 1.54-.308.41-.205.728-.467.952-.784.242-.317.41-.644.504-.98.112-.355.168-.681.168-.98 0-.224-.037-.504-.112-.84a3.08 3.08 0 0 0-.392-1.064c-.206-.355-.523-.653-.952-.896-.41-.243-.97-.364-1.68-.364h-2.912v6.216h2.884Zm3.808 2.52L58.223 89H53.49l-5.208-7.84 4.844-.112Zm12.123 1.54-7.588-14.196h5.012l5.32 10.696-1.204.084 5.236-10.78h5.012L69.31 82.588V89h-4.06v-6.412Z" fill="#fff"/><path d="M75.053 86.984c0-.579.205-1.064.616-1.456.43-.392.896-.588 1.4-.588.466 0 .905.196 1.316.588.43.392.644.877.644 1.456 0 .616-.215 1.11-.644 1.484-.41.355-.85.532-1.316.532-.504 0-.97-.177-1.4-.532-.41-.373-.616-.868-.616-1.484Z" fill="#FE6C02"/></svg>