<svg width="52" height="50" fill="none" xmlns="http://www.w3.org/2000/svg"><path stroke="#000" stroke-width="4" d="M2 2h47.149v46H2z"/><path d="M20.764 16.268c-.096.08-.276.188-.54.324a4.714 4.714 0 0 1-.948.36 4.384 4.384 0 0 1-1.248.144c-.696-.016-1.32-.14-1.872-.372a4.231 4.231 0 0 1-1.392-.972 4.297 4.297 0 0 1-.864-1.404c-.2-.528-.3-1.092-.3-1.692 0-.672.1-1.288.3-1.848.208-.56.5-1.044.876-1.452.384-.408.84-.724 1.368-.948a4.442 4.442 0 0 1 1.752-.336c.592 0 1.116.08 1.572.24.456.16.828.332 1.116.516l-.684 1.644a4.657 4.657 0 0 0-.804-.468 2.467 2.467 0 0 0-1.14-.252c-.336 0-.66.072-.972.216a2.527 2.527 0 0 0-.816.588 2.93 2.93 0 0 0-.552.9 2.916 2.916 0 0 0-.204 1.104c0 .424.06.812.18 1.164.128.352.308.656.54.912.232.248.508.44.828.576.328.136.696.204 1.104.204.472 0 .876-.076 1.212-.228.336-.152.592-.312.768-.48l.72 1.56Zm1.203-3.672c0-.608.116-1.184.348-1.728a4.632 4.632 0 0 1 2.4-2.436 4.292 4.292 0 0 1 1.752-.36c.616 0 1.196.12 1.74.36s1.024.572 1.44.996c.424.416.752.896.984 1.44.24.544.36 1.12.36 1.728 0 .624-.12 1.208-.36 1.752a4.438 4.438 0 0 1-.984 1.44 4.632 4.632 0 0 1-1.44.96 4.389 4.389 0 0 1-1.74.348 4.419 4.419 0 0 1-1.752-.348 4.632 4.632 0 0 1-1.44-.96 4.632 4.632 0 0 1-.96-1.44 4.419 4.419 0 0 1-.348-1.752Zm1.8 0c0 .392.068.76.204 1.104.144.336.34.636.588.9.256.256.548.456.876.6.336.144.7.216 1.092.216.376 0 .724-.072 1.044-.216.328-.144.612-.344.852-.6a3 3 0 0 0 .564-.9c.136-.344.204-.712.204-1.104 0-.4-.072-.772-.216-1.116a2.71 2.71 0 0 0-.576-.9 2.493 2.493 0 0 0-.852-.612 2.627 2.627 0 0 0-1.068-.216c-.384 0-.74.072-1.068.216a2.62 2.62 0 0 0-.864.612 2.71 2.71 0 0 0-.576.9 3.008 3.008 0 0 0-.204 1.116ZM22.048 29.36l-6.696-6.048.516.288.036 5.4H14.14v-9.18h.072l6.552 6.024-.384-.168-.036-5.508h1.752v9.192h-.048Zm1.327-.36 3.983-9.18h.096L31.44 29h-2.017l-2.544-6.456 1.26-.864L25.09 29h-1.715Zm2.724-3.192h2.651l.613 1.464h-3.805l.54-1.464Zm-10.195 9.504-.048.444.264-.336L19 32.168h2.256l-3.648 3.96L21.268 41H19.06l-2.724-3.768-.432.432V41H14.14v-8.832h1.764v3.144Zm9.361-3.144c.552 0 1.044.072 1.476.216.432.136.792.336 1.08.6.296.256.52.568.672.936.152.36.228.768.228 1.224 0 .36-.056.72-.168 1.08-.104.36-.28.688-.528.984-.24.296-.56.536-.96.72-.4.176-.896.264-1.488.264H24.33V41h-1.74v-8.832h2.676Zm.3 4.344c.264 0 .484-.044.66-.132.176-.088.312-.2.408-.336.104-.136.176-.276.216-.42.048-.152.072-.292.072-.42 0-.096-.016-.216-.048-.36a1.32 1.32 0 0 0-.168-.456 1.055 1.055 0 0 0-.408-.384c-.176-.104-.416-.156-.72-.156H24.33v2.664h1.236Zm1.632 1.08L29.381 41h-2.028l-2.232-3.36 2.076-.048Zm5.196.66-3.252-6.084h2.148l2.28 4.584-.516.036 2.244-4.62h2.148l-3.312 6.084V41h-1.74v-2.748Z" fill="#000"/><path d="M36.594 40.136c0-.248.088-.456.264-.624a.874.874 0 0 1 .6-.252c.2 0 .388.084.564.252a.811.811 0 0 1 .276.624.801.801 0 0 1-.276.636.85.85 0 0 1-.564.228.923.923 0 0 1-.6-.228.818.818 0 0 1-.264-.636Z" fill="#FE6C02"/></svg>